<svg width="55" height="57" viewBox="0 0 55 57" fill="none" xmlns="http://www.w3.org/2000/svg">
<path id="Vector" d="M16.6875 22.7473V23.2473H17.1875H48.125C49.8432 23.2473 51.4763 23.8127 52.6677 24.7982C53.8564 25.7814 54.5 27.0924 54.5 28.4341V51.1813C54.5 52.523 53.8564 53.834 52.6677 54.8172C51.4763 55.8027 49.8432 56.3681 48.125 56.3681H6.875C5.15679 56.3681 3.52374 55.8027 2.33233 54.8172C1.14364 53.834 0.5 52.523 0.5 51.1813V28.4341C0.5 27.0924 1.14364 25.7814 2.33233 24.7982C3.52374 23.8127 5.15679 23.2473 6.875 23.2473H10.3125H10.8125V22.7473V14.217C10.8125 6.7385 18.206 0.5 27.5 0.5C36.5861 0.5 43.8557 6.46249 44.1765 13.717H38.2963C37.9836 8.89462 33.1742 5.18681 27.5 5.18681C21.6312 5.18681 16.6875 9.15331 16.6875 14.217V22.7473ZM20.3579 38.2326L20.3572 38.2349C19.9447 39.5632 20.0721 40.9669 20.7132 42.2229C21.308 43.3882 22.3087 44.357 23.5625 45.016V51.1813V51.6813H24.0625H30.9375H31.4375V51.1813V45.0158C32.4255 44.4962 33.2592 43.7823 33.8601 42.9259C34.5189 41.987 34.8728 40.9115 34.875 39.8087L34.875 39.8062C34.8704 38.2714 34.1898 36.8096 32.9934 35.6889C31.7993 34.5704 30.1692 33.8623 28.4138 33.6776C26.6581 33.4929 24.8752 33.8418 23.3953 34.6692C21.9147 35.497 20.8239 36.757 20.3579 38.2326Z" fill="#FFFCFC" stroke="#B3ADAD"/>
</svg>
