<svg width="64" height="64" viewBox="0 0 64 64" fill="none" xmlns="http://www.w3.org/2000/svg">
<path id="Vector" d="M17.6923 23.0026V14.2015C17.6923 6.91055 24.0979 1 32 1C39.9021 1 46.3077 6.91055 46.3077 14.2015V23.0026C46.3077 27.8889 43.4304 32.1552 39.1538 34.4382V39.8257C39.1538 41.6251 40.3414 43.2431 42.1518 43.9111L51.9297 47.52C58.6157 49.9878 63 55.9628 63 62.6071H1C1 55.9628 5.38421 49.9878 12.0703 47.52L21.8482 43.9111C23.6586 43.2431 24.8462 41.6251 24.8462 39.8257V34.4382C20.5696 32.1552 17.6923 27.8889 17.6923 23.0026Z" stroke="#B3ADAD" stroke-linecap="round" stroke-linejoin="round"/>
</svg>
